inDegrees=yes
name=ik_S40_A11_T01
DataType=double
version=3
OpenSimVersion=4.3-2021-08-27-4bc7ad9
endheader
time	pelvis_tilt	pelvis_list	pelvis_rotation	pelvis_tx	pelvis_ty	pelvis_tz	hip_flexion_r	hip_adduction_r	hip_rotation_r	knee_angle_r	knee_angle_r_beta	ankle_angle_r	subtalar_angle_r	mtp_angle_r	hip_flexion_l	hip_adduction_l	hip_rotation_l	knee_angle_l	knee_angle_l_beta	ankle_angle_l	subtalar_angle_l	mtp_angle_l	lumbar_extension	lumbar_bending	lumbar_rotation	arm_flex_r	arm_add_r	arm_rot_r	elbow_flex_r	pro_sup_r	wrist_flex_r	wrist_dev_r	arm_flex_l	arm_add_l	arm_rot_l	elbow_flex_l	pro_sup_l	wrist_flex_l	wrist_dev_l
0	0	0	0	0	0.9399999999999999	0	0	0	0	0	0	0	0	0	0	0	0	0	0	0	0	0	0	0	0	0	0	0	0	89.99999999963507	0	0	0	0	0	0	89.99999999869995	0	0
0.02	1.96511256965638	0.4078997129738965	17.76636812671552	0	0.9399999999999999	0	1.697452896990401	-0.7953058541355805	-0.5715963195171763	2.671395376424452	0.04662464494115998	0	0	0	1.697452896990401	-0.7953058541355805	-0.5715963195171763	2.671395376424452	0.04662464494115998	0	0	0	2.114659207137212	0.2823794512059173	8.831010136884068	-1.454660209046564	-3.99581367353004	-16.5094398198725	-1.882983221918506	104.2280392991032	0	0	-3.246418506933989	-1.026659219571854	-5.297596057825676	0.8881533788008961	89.56204522994427	0	0
0.04	1.942690117430888	0.4093864691827042	17.79457353199614	0	0.9399999999999999	0	1.898463365609726	-0.8854133002290165	-0.6451103848060504	2.830784164622838	0.04940650408598571	0	0	0	1.898463365609726	-0.8854133002290165	-0.6451103848060504	2.830784164622838	0.04940650408598571	0	0	0	2.093178658217046	0.2895470585512547	8.818416116062298	-1.411501203961638	-4.020069273234231	-16.51590143412012	-1.9111965125318	104.1606445385425	0	0	-3.208223397395018	-1.008677208674307	-5.275937224793875	0.890202338370581	89.57336038345242	0	0
0.06	1.923600505939482	0.4051393893181578	17.82073694381823	0	0.9399999999999999	0	2.166797793204816	-1.005425199256882	-0.7429401879920892	3.041815109924851	0.05308968890510189	0	0	0	2.166797793204816	-1.005425199256882	-0.7429401879920892	3.041815109924851	0.05308968890510189	0	0	0	2.073076169379035	0.2893905556387026	8.785533261952235	-1.39623039806872	-4.008127885105663	-16.50325457559153	-1.907166367856251	104.1269762622235	0	0	-3.189272903278036	-1.021174448148746	-5.247520537617207	0.9171542326315643	89.55141119935976	0	0
0.08	1.902025958597157	0.3992857692620382	17.84715243286296	0	0.9399999999999999	0	2.378318325889691	-1.099718560928684	-0.819468164501807	3.216709785180385	0.05614217683251722	0	0	0	2.378318325889691	-1.099718560928684	-0.819468164501807	3.216709785180385	0.05614217683251722	0	0	0	2.050437804441129	0.2885620002270719	8.761548636507104	-1.430557350692283	-3.990669426974092	-16.51685086559625	-1.857972976381136	104.1067390434463	0	0	-3.174633568834614	-1.021288197852992	-5.205500052269498	0.9173240368607133	89.55227804803431	0	0
0.1	1.888955062641131	0.3944931877833293	17.99375448335674	0	0.9399999999999999	0	3.859426057584266	-1.7694699478592	-1.347970916662239	4.626413289552207	0.08074614446070778	0	0	0	3.859426057584266	-1.7694699478592	-1.347970916662239	4.626413289552207	0.08074614446070778	0	0	0	2.028863368119204	0.2796083995282808	8.608137652681457	-1.396224344248743	-3.988519530131553	-16.5121073652342	-1.846009337811513	104.1022138316374	0	0	-3.156556096370851	-1.034604438021106	-5.160444013359673	0.8929878042169712	89.53629406996622	0	0
0.12	1.864315754396165	0.3836325703373698	18.01844244651169	0	0.9399999999999999	0	4.026687854691714	-1.841351696270392	-1.406729133828396	4.776366679432201	0.08336332483864042	0	0	0	4.026687854691714	-1.841351696270392	-1.406729133828396	4.776366679432201	0.08336332483864042	0	0	0	2.001849010905481	0.2753982584980172	8.5907426267008	-1.415341794535558	-3.97615004721876	-16.51788883860197	-1.800412854331923	104.0556323895678	0	0	-3.136010087057156	-1.053854237654185	-5.123001814021809	0.9353785577372135	89.53220685204181	0	0
0.14	1.843902469013635	0.3684774393934328	18.00249899628244	0	0.9399999999999999	0	4.035325296674895	-1.845760935245461	-1.409672765580913	4.788631607457514	0.08357738821520228	0	0	0	4.035325296674895	-1.845760935245461	-1.409672765580913	4.788631607457514	0.08357738821520228	0	0	0	1.977710943664361	0.2674303596156124	8.59517481936164	-1.406232145143716	-3.951812740125773	-16.53435392535514	-1.804079100422407	104.0128836127865	0	0	-3.142100005363498	-1.071310598927808	-5.048000991509837	0.9243262742973462	89.56540296581768	0	0
0.16	1.83713163843746	0.3674286634296491	18.03688189070189	0	0.9399999999999999	0	4.390577455163648	-1.999396311227064	-1.533767717231915	5.118745526861995	0.08933896301547366	0	0	0	4.390577455163648	-1.999396311227064	-1.533767717231915	5.118745526861995	0.08933896301547366	0	0	0	1.970217402090132	0.2657269442908306	8.561922883541898	-1.445445391864334	-3.935241691354793	-16.5574216448926	-1.772243210898929	103.899290152203	0	0	-3.162623303661741	-1.078474187352191	-5.003087794083772	0.9321971660688095	89.54799248414052	0	0
0.18	1.828778222716661	0.3602859582264273	18.05293666012775	0	0.9399999999999999	0	4.676973185942118	-2.119763218776531	-1.633496295576143	5.372039225627282	0.09375977203348261	0	0	0	4.676973185942118	-2.119763218776531	-1.633496295576143	5.372039225627282	0.09375977203348261	0	0	0	1.959174289663683	0.2594539306289962	8.526355609157957	-1.434631941327039	-3.910205115054139	-16.55969330784455	-1.783573942354748	103.8331622464228	0	0	-3.188577064913877	-1.087063453408562	-4.976656362842866	0.9704904767820053	89.5245249891581	0	0
0.2	1.815712843359615	0.3531799563888096	18.07080462929462	0	0.9399999999999999	0	4.954186291792448	-2.235278334757072	-1.729542645841935	5.619197917729092	0.09807350498558211	0	0	0	4.954186291792448	-2.235278334757072	-1.729542645841935	5.619197917729092	0.09807350498558211	0	0	0	1.943512017073707	0.2551983921579482	8.497418995446917	-1.44805479285802	-3.892233950217588	-16.59811054546346	-1.78912846571551	103.7404510972995	0	0	-3.161629190103375	-1.088273099442059	-4.983167570159628	0.9971087611172346	89.5222787346349	0	0
0.22	1.80093051367191	0.3440346104145738	18.10860589565512	0	0.9399999999999999	0	5.247348212789111	-2.359207173306701	-1.83060955888375	5.896275030614822	0.1029094128873581	0	0	0	5.247348212789111	-2.359207173306701	-1.83060955888375	5.896275030614822	0.1029094128873581	0	0	0	1.925485185860906	0.2500401621399536	8.486312822078933	-1.509869969343417	-3.869649912881191	-16.73020064037954	-1.694095840467415	103.767176418763	0	0	-3.126517744696262	-1.08791377992691	-4.947543721974816	0.8924559553961264	89.56780202640525	0	0
0.24	1.781893701777319	0.3345211617499151	18.21148454522877	0	0.9399999999999999	0	6.436200807049882	-2.86412938399281	-2.237517375888552	7.085718234315983	0.1236691130574129	0	0	0	6.436200807049882	-2.86412938399281	-2.237517375888552	7.085718234315983	0.1236691130574129	0	0	0	1.896403311673091	0.2437734853859501	8.360579131722648	-1.428169428192365	-3.87993513595019	-16.71034004259771	-1.747946829007076	103.6314296664581	0	0	-3.120499996596554	-1.093884192968148	-4.941120320720011	0.9039488143502461	89.58129741587719	0	0
0.26	1.781892875472073	0.3278936259331008	18.19766942261726	0	0.9399999999999999	0	6.443659226987975	-2.867793781353589	-2.240058220843908	7.095666830098552	0.1238427488097688	0	0	0	6.443659226987975	-2.867793781353589	-2.240058220843908	7.095666830098552	0.1238427488097688	0	0	0	1.894253940939204	0.2378897261625941	8.373162511415906	-1.494017062669932	-3.860788636438667	-16.79677555614627	-1.743044520755515	103.5100120986904	0	0	-3.131445690529297	-1.104249836559134	-4.924340441419662	0.9088756786973863	89.57363292393053	0	0
0.28	1.765690491930822	0.3251969446555505	18.1805655155385	0	0.9399999999999999	0	6.452297095850548	-2.87204135285975	-2.243001970138772	7.107181590293639	0.1240437192877507	0	0	0	6.452297095850548	-2.87204135285975	-2.243001970138772	7.107181590293639	0.1240437192877507	0	0	0	1.877914036085629	0.2409639457806399	8.390713995773737	-1.590105617228375	-3.875317823369575	-16.95223758428424	-1.662905781531836	103.481088954034	0	0	-3.154090743725831	-1.089898204157511	-4.891554292601758	0.9167911621605676	89.56856136349802	0	0
0.3	1.719079218038488	0.3193203588934044	18.3220951863028	0	0.9399999999999999	0	7.546608426217659	-3.318307743987916	-2.610981444044032	8.200642165719689	0.143128206569687	0	0	0	7.546608426217659	-3.318307743987916	-2.610981444044032	8.200642165719689	0.143128206569687	0	0	0	1.824281614424287	0.2473868680944636	8.300403495373942	-1.491725106366563	-3.894749999469548	-17.0239599975474	-1.624610071681503	103.1970523173098	0	0	-3.096919398767394	-1.040911492704845	-4.801496083874489	0.9282996992559802	89.57322743176535	0	0
0.32	1.648133451505433	0.3064992783070308	18.27440752315633	0	0.9399999999999999	0	7.564655264100377	-3.327015548748545	-2.617120482151448	8.224052174450792	0.1435367882999654	0	0	0	7.564655264100377	-3.327015548748545	-2.617120482151448	8.224052174450792	0.1435367882999654	0	0	0	1.752171653575576	0.2618368741654928	8.43119227439592	-1.555287416833456	-3.862629141834322	-17.64844154358406	-1.249801694646831	102.2401319123397	0	0	-3.030877257103557	-1.018248973457128	-4.694581203785996	1.011169822276561	89.55935410630772	0	0
0.34	1.610365283158404	0.3049515692869348	18.20550730883507	0	0.9399999999999999	0	7.587699789084171	-3.338123838173751	-2.624958028219767	8.253920655330271	0.1440580916338813	0	0	0	7.587699789084171	-3.338123838173751	-2.624958028219767	8.253920655330271	0.1440580916338813	0	0	0	1.71527717524779	0.275730732797438	8.548406364618717	-1.656916719093646	-3.62004177331153	-18.1303540553381	-0.7466392869329158	101.2644547083299	0	0	-3.028972260157968	-0.9800314306198589	-4.736207970905109	1.023753158213753	89.62730568998579	0	0
0.36	1.56239155522257	0.3217072061618986	18.16172997588986	0	0.9399999999999999	0	7.600718208129293	-3.344392690954975	-2.629384523264358	8.270784341618182	0.1443524184836287	0	0	0	7.600718208129293	-3.344392690954975	-2.629384523264358	8.270784341618182	0.1443524184836287	0	0	0	1.674275633097798	0.3111017786186607	8.695222605362963	-1.65448705598439	-3.37136156073169	-19.1490231042101	-0.605989862451885	101.274859161759	0	0	-2.947172422823812	-0.9182549333441485	-4.639771068039077	0.9998511027511622	89.58032695973665	0	0
0.3800000000000001	1.544405712340922	0.3516855599410684	18.09001293229649	0	0.9399999999999999	0	7.616040218177534	-3.351766003103341	-2.634593606240855	8.290621032055592	0.1446986340444604	0	0	0	7.616040218177534	-3.351766003103341	-2.634593606240855	8.290621032055592	0.1446986340444604	0	0	0	1.664813353588747	0.352279695845563	8.929146759101902	-1.726742206969849	-2.920487167681586	-20.48544149979045	-0.2094791592838833	100.5529538095335	0	0	-2.972627738997472	-0.8376839385346666	-4.598983667891789	0.9998446819640724	89.62086340577535	0	0
0.4000000000000001	1.526521575293736	0.3765943474273643	18.0437931541833	0	0.9399999999999999	0	7.644937294368072	-3.365638114625026	-2.644410190080979	8.328018049689156	0.1453513351325925	0	0	0	7.644937294368072	-3.365638114625026	-2.644410190080979	8.328018049689156	0.1453513351325925	0	0	0	1.654827092408291	0.3889389954989051	9.176404610976467	-1.738237040221156	-2.195661227892385	-21.25574445587417	0.6590943404011704	98.30848390974988	0	0	-2.966934768003654	-0.7559564246957899	-4.985711558726831	0.9537753083906858	90.13329674373152	0	0
